<svg width="800" height="600" viewBox="0 0 800 600" fill="none" xmlns="http://www.w3.org/2000/svg">
  <!-- Background -->
  <rect width="800" height="600" fill="#262626"/>
  
  <!-- Diagonal lines with varying opacity and thickness -->
  <line x1="50" y1="150" x2="300" y2="200" stroke="#ffffff" stroke-width="3" opacity="0.9" stroke-linecap="round"/>
  <line x1="80" y1="170" x2="350" y2="225" stroke="#ffffff" stroke-width="3" opacity="0.85" stroke-linecap="round"/>
  <line x1="110" y1="190" x2="400" y2="250" stroke="#ffffff" stroke-width="2.5" opacity="0.8" stroke-linecap="round"/>
  <line x1="140" y1="210" x2="450" y2="275" stroke="#ffffff" stroke-width="2.5" opacity="0.75" stroke-linecap="round"/>
  <line x1="170" y1="230" x2="500" y2="300" stroke="#ffffff" stroke-width="2" opacity="0.7" stroke-linecap="round"/>
  <line x1="200" y1="250" x2="550" y2="325" stroke="#ffffff" stroke-width="2" opacity="0.65" stroke-linecap="round"/>
  <line x1="230" y1="270" x2="600" y2="350" stroke="#ffffff" stroke-width="2" opacity="0.6" stroke-linecap="round"/>
  <line x1="260" y1="290" x2="650" y2="375" stroke="#ffffff" stroke-width="1.5" opacity="0.55" stroke-linecap="round"/>
  <line x1="290" y1="310" x2="700" y2="400" stroke="#ffffff" stroke-width="1.5" opacity="0.5" stroke-linecap="round"/>
  <line x1="320" y1="330" x2="750" y2="425" stroke="#ffffff" stroke-width="1.5" opacity="0.45" stroke-linecap="round"/>
  <line x1="350" y1="350" x2="800" y2="450" stroke="#ffffff" stroke-width="1" opacity="0.4" stroke-linecap="round"/>
  <line x1="380" y1="370" x2="850" y2="475" stroke="#ffffff" stroke-width="1" opacity="0.35" stroke-linecap="round"/>
  <line x1="410" y1="390" x2="900" y2="500" stroke="#ffffff" stroke-width="1" opacity="0.3" stroke-linecap="round"/>
  <line x1="440" y1="410" x2="950" y2="525" stroke="#ffffff" stroke-width="0.8" opacity="0.25" stroke-linecap="round"/>
  <line x1="470" y1="430" x2="1000" y2="550" stroke="#ffffff" stroke-width="0.8" opacity="0.2" stroke-linecap="round"/>
  
  <!-- Text label -->
  <text x="500" y="130" font-family="system-ui, -apple-system, sans-serif" font-size="48" font-weight="400" fill="#999999" letter-spacing="2">50ms</text>
</svg>
